<svg width="52" height="52" viewBox="0 0 52 52" fill="none" xmlns="http://www.w3.org/2000/svg">
<rect width="52" height="52" rx="26" fill="white"/>
<path d="M24.2498 23.0833H23.0832V21.9167C23.0832 21.6072 22.9603 21.3105 22.7415 21.0917C22.5227 20.8729 22.2259 20.75 21.9165 20.75C21.6071 20.75 21.3103 20.8729 21.0915 21.0917C20.8728 21.3105 20.7498 21.6072 20.7498 21.9167V23.0833H19.5832C19.2738 23.0833 18.977 23.2062 18.7582 23.425C18.5394 23.6438 18.4165 23.9406 18.4165 24.25C18.4165 24.5594 18.5394 24.8562 18.7582 25.075C18.977 25.2937 19.2738 25.4167 19.5832 25.4167H20.7498V26.5833C20.7498 26.8928 20.8728 27.1895 21.0915 27.4083C21.3103 27.6271 21.6071 27.75 21.9165 27.75C22.2259 27.75 22.5227 27.6271 22.7415 27.4083C22.9603 27.1895 23.0832 26.8928 23.0832 26.5833V25.4167H24.2498C24.5593 25.4167 24.856 25.2937 25.0748 25.075C25.2936 24.8562 25.4165 24.5594 25.4165 24.25C25.4165 23.9406 25.2936 23.6438 25.0748 23.425C24.856 23.2062 24.5593 23.0833 24.2498 23.0833ZM38.7515 25.5917L38.6815 25.4633C38.6614 25.4056 38.634 25.3507 38.5998 25.3L35.7998 21.5667C35.4738 21.132 35.0511 20.7792 34.5651 20.5362C34.0791 20.2932 33.5432 20.1667 32.9998 20.1667H30.6665V19C30.6665 18.0717 30.2978 17.1815 29.6414 16.5251C28.985 15.8687 28.0948 15.5 27.1665 15.5H16.6665C15.7382 15.5 14.848 15.8687 14.1916 16.5251C13.5353 17.1815 13.1665 18.0717 13.1665 19V31.8333C13.1665 32.1428 13.2894 32.4395 13.5082 32.6583C13.727 32.8771 14.0238 33 14.3332 33H15.4998C15.4998 33.9283 15.8686 34.8185 16.525 35.4749C17.1813 36.1313 18.0716 36.5 18.9998 36.5C19.9281 36.5 20.8183 36.1313 21.4747 35.4749C22.1311 34.8185 22.4998 33.9283 22.4998 33H29.4998C29.4998 33.9283 29.8686 34.8185 30.525 35.4749C31.1813 36.1313 32.0716 36.5 32.9998 36.5C33.9281 36.5 34.8183 36.1313 35.4747 35.4749C36.1311 34.8185 36.4998 33.9283 36.4998 33H37.6665C37.9759 33 38.2727 32.8771 38.4915 32.6583C38.7103 32.4395 38.8332 32.1428 38.8332 31.8333V26C38.8307 25.8601 38.803 25.7218 38.7515 25.5917ZM18.9998 34.1667C18.7691 34.1667 18.5435 34.0982 18.3517 33.97C18.1598 33.8419 18.0103 33.6596 17.922 33.4465C17.8337 33.2333 17.8106 32.9987 17.8556 32.7724C17.9006 32.5461 18.0117 32.3382 18.1749 32.175C18.338 32.0119 18.5459 31.9008 18.7722 31.8557C18.9985 31.8107 19.2331 31.8338 19.4463 31.9221C19.6595 32.0104 19.8417 32.16 19.9699 32.3518C20.0981 32.5437 20.1665 32.7693 20.1665 33C20.1665 33.3094 20.0436 33.6062 19.8248 33.825C19.606 34.0438 19.3093 34.1667 18.9998 34.1667ZM28.3332 30.6667H21.5898C21.2618 30.3058 20.8619 30.0174 20.4159 29.8201C19.9699 29.6227 19.4876 29.5208 18.9998 29.5208C18.5121 29.5208 18.0298 29.6227 17.5838 29.8201C17.1377 30.0174 16.7379 30.3058 16.4098 30.6667H15.4998V19C15.4998 18.6906 15.6228 18.3938 15.8415 18.175C16.0603 17.9562 16.3571 17.8333 16.6665 17.8333H27.1665C27.4759 17.8333 27.7727 17.9562 27.9915 18.175C28.2103 18.3938 28.3332 18.6906 28.3332 19V30.6667ZM30.6665 22.5H32.9998C33.181 22.5 33.3596 22.5422 33.5216 22.6232C33.6836 22.7042 33.8245 22.8218 33.9332 22.9667L35.3332 24.8333H30.6665V22.5ZM32.9998 34.1667C32.7691 34.1667 32.5435 34.0982 32.3517 33.97C32.1598 33.8419 32.0103 33.6596 31.922 33.4465C31.8337 33.2333 31.8106 32.9987 31.8556 32.7724C31.9006 32.5461 32.0117 32.3382 32.1749 32.175C32.338 32.0119 32.5459 31.9008 32.7722 31.8557C32.9985 31.8107 33.2331 31.8338 33.4463 31.9221C33.6595 32.0104 33.8417 32.16 33.9699 32.3518C34.0981 32.5437 34.1665 32.7693 34.1665 33C34.1665 33.3094 34.0436 33.6062 33.8248 33.825C33.606 34.0438 33.3093 34.1667 32.9998 34.1667ZM36.4998 30.6667H35.5898C34.969 29.9831 34.1032 29.5725 33.181 29.5244C32.2588 29.4763 31.355 29.7946 30.6665 30.41V27.1667H36.4998V30.6667Z" fill="#A00000"/>
</svg>
