<svg width="32" height="32" viewBox="0 0 32 32" fill="none" xmlns="http://www.w3.org/2000/svg">
<rect width="32" height="32" rx="16" fill="#E5E5FE"/>
<g clip-path="url(#clip0_24_7968)">
<path d="M16 25.1666C16 25.1666 23.5 20.1666 23.5 14.3333C23.5 12.3441 22.7098 10.4365 21.3033 9.02995C19.8968 7.62343 17.9891 6.83325 16 6.83325C14.0109 6.83325 12.1032 7.62343 10.6967 9.02995C9.29018 10.4365 8.5 12.3441 8.5 14.3333C8.5 20.1666 16 25.1666 16 25.1666Z" stroke="#3C4B78" stroke-width="2" stroke-linecap="round" stroke-linejoin="round"/>
<path d="M16 16.8333C17.3807 16.8333 18.5 15.714 18.5 14.3333C18.5 12.9525 17.3807 11.8333 16 11.8333C14.6193 11.8333 13.5 12.9525 13.5 14.3333C13.5 15.714 14.6193 16.8333 16 16.8333Z" stroke="#3C4B78" stroke-width="2" stroke-linecap="round" stroke-linejoin="round"/>
</g>
<defs>
<clipPath id="clip0_24_7968">
<rect width="20" height="20" fill="white" transform="translate(6 6)"/>
</clipPath>
</defs>
</svg>
