<svg width="36" height="36" viewBox="0 0 36 36" fill="none" xmlns="http://www.w3.org/2000/svg">
<rect width="36" height="36" rx="18" fill="#E8F9EE"/>
<path d="M18 9.75C15.1084 9.75 12.75 12.1084 12.75 15C12.75 17.6367 14.7129 19.8135 17.25 20.1797V27H18.75V20.1797C21.2871 19.8135 23.25 17.6367 23.25 15C23.25 12.1084 20.8916 9.75 18 9.75ZM18 11.25C20.0801 11.25 21.75 12.9199 21.75 15C21.75 17.0801 20.0801 18.75 18 18.75C15.9199 18.75 14.25 17.0801 14.25 15C14.25 12.9199 15.9199 11.25 18 11.25ZM18 12C16.3506 12 15 13.3506 15 15H16.5C16.5 14.1621 17.1621 13.5 18 13.5V12Z" fill="#3C4B78"/>
</svg>
